<?xml version="1.0" encoding="UTF-8"?>
<!-- Created with Inkscape (http://www.inkscape.org/) -->
<svg width="220mm" height="220mm" version="1.1" viewBox="0 0 220 220" xmlns="http://www.w3.org/2000/svg" xmlns:xlink="http://www.w3.org/1999/xlink">
 <defs>
  <linearGradient id="linearGradient19892" x1="56.382" x2="40.039" y1="216.74" y2="-95.659" gradientUnits="userSpaceOnUse">
   <stop stop-color="#4d4d4d" offset="0"/>
   <stop stop-color="#4d4d4d" stop-opacity="0" offset="1"/>
  </linearGradient>
 </defs>
 <rect width="220" height="220" fill="url(#linearGradient19892)" stroke-width=".26458"/>
 <path d="m111.56 215.85c-0.94478-0.23541-1.8693-0.80314-2.7702-1.7011-1.3208-1.3165-1.8153-2.5193-1.8153-4.415 0-2.1332 0.57305-3.6276 1.8997-4.9538 1.2689-1.2685 2.6172-1.8216 4.4408-1.8216 1.5338 0 2.7563 0.40858 3.9979 1.3362 0.59144 0.44186 1.4633 1.4444 1.4569 1.6753-2e-3 0.0704-0.48161 0.42368-1.0659 0.78515-1.0051 0.62182-1.0688 0.64557-1.1818 0.44107-0.29919-0.54109-1.2584-1.3502-1.8388-1.5509-0.82103-0.28401-2.0777-0.26631-2.766 0.0389-1.2585 0.55806-2.1787 1.9341-2.2727 3.3982-0.11724 1.8268 0.64501 3.3806 2.0164 4.1101 0.49105 0.26124 0.67194 0.29332 1.654 0.2934 1.2484 9e-5 1.6489-0.14879 2.4073-0.89489 0.55779-0.54875 1.0339-1.4689 0.82767-1.5996-0.0811-0.0514-0.92892-0.0942-1.8841-0.0951l-1.7368-2e-3v-2.2054h6.3956v7.1675h-2.2054v-1.4247l-0.70246 0.5317c-0.99175 0.75065-1.5181 0.91305-3.1018 0.957-0.72779 0.0202-1.5175-0.0117-1.755-0.0708zm14.16-0.0574c-1.6749-0.44188-3.3218-1.7635-4.0494-3.2497-0.95194-1.9443-0.91133-4.4034 0.10418-6.3088 0.4977-0.93376 1.6115-2.0283 2.5782-2.5336 2.372-1.2399 5.2808-0.94959 7.3466 0.7332 1.08 0.87979 1.6036 1.8162 2.4384 4.3617 0.44326 1.3515 0.88744 2.4878 1.1261 2.8807 0.86335 1.4212 2.367 2.1493 3.8664 1.8721 1.2774-0.23616 2.2386-0.99812 2.8612-2.2682 0.29679-0.6055 0.32372-0.75804 0.32103-1.8188-2e-3 -1.0337-0.0353-1.2243-0.30468-1.778-0.82657-1.6988-2.4246-2.5964-4.0861-2.2951-0.36812 0.0668-0.82028 0.19793-1.0048 0.29151-0.51332 0.26031-1.2435 0.88604-1.4583 1.2498-0.10605 0.17951-0.22642 0.3264-0.26749 0.3264-0.0411 0-0.38786-0.52918-0.77066-1.176l-0.69599-1.176 0.53544-0.47116c1.0937-0.9624 2.5828-1.4774 4.2716-1.4774 1.9187 0 3.3055 0.55278 4.5859 1.8279 1.3784 1.3727 1.9957 3.0796 1.8689 5.1675-0.15757 2.5941-1.7123 4.7195-4.1347 5.6523-0.89502 0.34467-2.7776 0.47213-3.8094 0.25793-1.0567-0.21936-2.3347-0.93301-3.1741-1.7725-0.91213-0.91213-1.428-1.9335-2.0816-4.1216-0.75812-2.5378-1.4659-3.6517-2.7064-4.2596-0.79858-0.39133-2.0773-0.43359-2.971-0.0982-0.82472 0.30951-1.6554 1.1123-2.1033 2.0326-0.29275 0.60155-0.32216 0.76674-0.32394 1.8194-2e-3 1.0255 0.0316 1.2293 0.29131 1.7836 0.40683 0.86811 1.0891 1.5687 1.9315 1.9834 0.90244 0.44428 1.9488 0.4823 2.9188 0.10608 0.60244-0.23367 1.4071-0.88403 1.7822-1.4405 0.0998-0.14796 0.20201-0.2472 0.22724-0.22054 0.0253 0.0267 0.3579 0.56629 0.73925 1.1992l0.69335 1.1507-0.52831 0.46489c-0.7225 0.63577-1.4337 1.0028-2.4432 1.261-1.0216 0.26129-2.6729 0.28143-3.5743 0.0436zm-50.724-6.2763v-6.3405h9.4832v2.3157h-6.947v2.7567h5.6238v2.3157h-5.6238v2.9773h6.947v2.3157h-9.4832zm11.248 0v-6.3405h2.5009l0.0725 2.7292c0.0399 1.501 0.0727 3.8006 0.0728 5.1101l2.2e-4 2.3809 2.0676 0.0723c1.1372 0.0398 2.601 0.0724 3.253 0.0726l1.1854 3.1e-4v2.3157h-9.1524zm10.476 0v-6.3405h9.4832v2.3157h-6.947v2.7567h5.6238v2.3157h-5.6238v2.9773h6.947v2.3157h-9.4832z" fill="#fff" stroke="#000" stroke-width=".11027"/>
 <g fill="none">
  <g stroke="#f9f9f9">
   <g stroke-dasharray="0.47600003,1.90400011" stroke-width=".476">
    <path d="m20 10v200"/>
    <path d="m30 10v200"/>
    <path d="m40 10v200"/>
    <path d="m50 10v200"/>
    <path d="m60 10v200"/>
    <path d="m70 10v200"/>
   </g>
   <g stroke-dasharray="0.464017, 1.85607" stroke-width=".46402">
    <path d="m79.994 10v190"/>
    <path d="m89.997 10v190"/>
    <path d="m100 10v190"/>
    <path d="m110 10v190"/>
    <path d="m120.01 10v190"/>
   </g>
   <path d="m129.99 10v190" stroke-dasharray="0.464221, 1.85688" stroke-width=".46422"/>
   <path d="m140.01 10v190" stroke-dasharray="0.464221, 1.85688" stroke-width=".46422"/>
   <g stroke-dasharray="0.47600003,1.90400011" stroke-width=".476">
    <path d="m150 10v200"/>
    <path d="m160 10v200"/>
    <path d="m160 10v200"/>
    <path d="m170 10v200"/>
    <path d="m180 10v200"/>
    <path d="m190 10v200"/>
    <path d="m200 10v200"/>
    <path d="m210 20h-200"/>
    <path d="m210 30h-200"/>
    <path d="m210 40h-200"/>
    <path d="m210 50h-200"/>
    <path d="m210 60h-200"/>
    <path d="m210 70h-200"/>
    <path d="m210 80h-200"/>
    <path d="m210 90h-200"/>
    <path d="m210 100h-200"/>
    <path d="m210 110h-200"/>
    <path d="m210 120h-200"/>
    <path d="m210 130h-200"/>
    <path d="m210 140h-200"/>
    <path d="m210 150h-200"/>
    <path d="m210 160h-200"/>
    <path d="m210 160h-200"/>
    <path d="m210 170h-200"/>
    <path d="m210 180h-200"/>
    <path d="m210 190h-200"/>
    <path d="m210 200h-200"/>
   </g>
  </g>
  <path d="m73.217 209.75-62.967-1e-5v-199.5h199.5v199.5l-62.967 1e-5" opacity=".99" stroke="#d40000" stroke-width=".5"/>
 </g>
</svg>
