<?xml version="1.0" encoding="UTF-8" standalone="no"?>
<svg
   width="3174.8032"
   height="1530.7086"
   viewBox="0 0 3174.8032 1530.7086"
   version="1.1"
   id="svg338"
   sodipodi:docname="printbed_outline_308.svg"
   inkscape:version="1.1 (c68e22c387, 2021-05-23)"
   xmlns:inkscape="http://www.inkscape.org/namespaces/inkscape"
   xmlns:sodipodi="http://sodipodi.sourceforge.net/DTD/sodipodi-0.dtd"
   xmlns="http://www.w3.org/2000/svg"
   xmlns:svg="http://www.w3.org/2000/svg"
   xmlns:rdf="http://www.w3.org/1999/02/22-rdf-syntax-ns#"
   xmlns:cc="http://creativecommons.org/ns#"
   xmlns:dc="http://purl.org/dc/elements/1.1/">
  <metadata
     id="metadata344">
    <rdf:RDF>
      <cc:Work
         rdf:about="">
        <dc:format>image/svg+xml</dc:format>
        <dc:type
           rdf:resource="http://purl.org/dc/dcmitype/StillImage" />
        <dc:title>MBL133</dc:title>
      </cc:Work>
    </rdf:RDF>
  </metadata>
  <defs
     id="defs342" />
  <sodipodi:namedview
     pagecolor="#ffffff"
     bordercolor="#666666"
     borderopacity="1"
     objecttolerance="10"
     gridtolerance="10"
     guidetolerance="10"
     inkscape:pageopacity="0"
     inkscape:pageshadow="2"
     inkscape:window-width="1920"
     inkscape:window-height="1017"
     id="namedview340"
     showgrid="false"
     units="px"
     scale-x="1"
     inkscape:zoom="1.1186861"
     inkscape:cx="2843.0674"
     inkscape:cy="1356.5021"
     inkscape:window-x="-8"
     inkscape:window-y="-8"
     inkscape:window-maximized="1"
     inkscape:current-layer="svg338"
     inkscape:pagecheckerboard="0"
     height="1530.7086px" />
  <title
     id="title2">MBL133</title>
  <line
     x1="0.70999998"
     y1="0.70999998"
     x2="0.70999998"
     y2="1530,70862"
     id="line4"
     style="fill:none;stroke:#ffffff;stroke-width:1.42;stroke-linecap:round;stroke-linejoin:round" />
  <line
     x1="3174"
     y1="1530,70862"
     x2="3174"
     y2="0.70999998"
     id="line10"
     style="fill:none;stroke:#ffffff;stroke-width:1.42;stroke-linecap:round;stroke-linejoin:round" />
  <line
     x1="0.70999998"
     y1="1530,70862"
     x2="3174"
     y2="1530,70862"
     id="line14"
     style="fill:none;stroke:#ffffff;stroke-width:1.42;stroke-linecap:round;stroke-linejoin:round" />
  <line
     x1="3174"
     y1="0.70999998"
     x2="0.70999998"
     y2="0.70999998"
     id="line24"
     style="fill:none;stroke:#ffffff;stroke-width:1.42;stroke-linecap:round;stroke-linejoin:round" />
  <g
     aria-label="Meltingplot MBL 308"
     id="text7532"
     style="font-size:40px;line-height:1.25;font-family:'Open Sans';-inkscape-font-specification:'Open Sans';letter-spacing:0px;word-spacing:0px;fill:#ffffff">
    <path
       d="m 2724.2009,1456.6195 -8.2812,-23.8476 h -0.1563 q 0.3321,5.3125 0.3321,9.9609 v 13.8867 h -4.2383 v -28.5547 h 6.582 l 7.9297,22.7149 h 0.1172 l 8.164,-22.7149 h 6.6016 v 28.5547 h -4.4922 v -14.1211 q 0,-2.1289 0.098,-5.5469 0.1172,-3.4179 0.1953,-4.1406 h -0.1563 l -8.5742,23.8086 z"
       style="font-weight:600;-inkscape-font-specification:'Open Sans Semi-Bold'"
       id="path27728" />
    <path
       d="m 2757.7166,1457.0101 q -5.0391,0 -7.8907,-2.9297 -2.832,-2.9492 -2.832,-8.1054 0,-5.293 2.6367,-8.3203 2.6367,-3.0274 7.2461,-3.0274 4.2774,0 6.7578,2.5977 2.4805,2.5976 2.4805,7.1484 v 2.4805 h -14.3945 q 0.098,3.1445 1.6992,4.8437 1.6015,1.6797 4.5117,1.6797 1.9141,0 3.5547,-0.3515 1.6601,-0.3711 3.5547,-1.211 v 3.7305 q -1.6797,0.8008 -3.3985,1.1328 -1.7187,0.332 -3.9257,0.332 z m -0.8399,-18.9062 q -2.1875,0 -3.5156,1.3867 -1.3086,1.3867 -1.5625,4.043 h 9.8047 q -0.039,-2.6758 -1.2891,-4.043 -1.25,-1.3867 -3.4375,-1.3867 z"
       style="font-weight:600;-inkscape-font-specification:'Open Sans Semi-Bold'"
       id="path27730" />
    <path
       d="m 2775.9197,1456.6195 h -4.5899 v -30.3906 h 4.5899 z"
       style="font-weight:600;-inkscape-font-specification:'Open Sans Semi-Bold'"
       id="path27732" />
    <path
       d="m 2790.5291,1453.2992 q 1.6796,0 3.3593,-0.5273 v 3.457 q -0.7617,0.332 -1.9726,0.5469 -1.1914,0.2343 -2.4805,0.2343 -6.5234,0 -6.5234,-6.875 v -11.6406 h -2.9493 v -2.0312 l 3.1641,-1.6797 1.5625,-4.5703 h 2.832 v 4.8046 h 6.1524 v 3.4766 h -6.1524 v 11.5625 q 0,1.6602 0.8204,2.4609 0.8398,0.7813 2.1875,0.7813 z"
       style="font-weight:600;-inkscape-font-specification:'Open Sans Semi-Bold'"
       id="path27734" />
    <path
       d="m 2802.7947,1456.6195 h -4.5899 v -21.6016 h 4.5899 z m -4.8633,-27.3242 q 0,-1.2305 0.6641,-1.8945 0.6836,-0.6641 1.9336,-0.6641 1.2109,0 1.875,0.6641 0.6835,0.664 0.6835,1.8945 0,1.1719 -0.6835,1.8555 -0.6641,0.664 -1.875,0.664 -1.25,0 -1.9336,-0.664 -0.6641,-0.6836 -0.6641,-1.8555 z"
       style="font-weight:600;-inkscape-font-specification:'Open Sans Semi-Bold'"
       id="path27736" />
    <path
       d="m 2828.3611,1456.6195 h -4.6094 v -13.2812 q 0,-2.5 -1.0156,-3.7305 -0.9961,-1.2305 -3.1836,-1.2305 -2.9102,0 -4.2578,1.7188 -1.3477,1.7187 -1.3477,5.7617 v 10.7617 h -4.5898 v -21.6016 h 3.5937 l 0.6446,2.8321 h 0.2343 q 0.9766,-1.543 2.7735,-2.3828 1.7968,-0.8399 3.9843,-0.8399 7.7735,0 7.7735,7.9102 z"
       style="font-weight:600;-inkscape-font-specification:'Open Sans Semi-Bold'"
       id="path27738" />
    <path
       d="m 2852.99,1435.0179 v 2.5196 l -3.6914,0.6836 q 0.5078,0.6836 0.8398,1.6797 0.3321,0.9961 0.3321,2.1093 0,3.3399 -2.3047,5.2539 -2.3047,1.9141 -6.3477,1.9141 -1.0351,0 -1.875,-0.1562 -1.4844,0.9179 -1.4844,2.1484 0,0.7422 0.6836,1.1133 0.7032,0.3711 2.5586,0.3711 h 3.7696 q 3.5742,0 5.4296,1.5234 1.8555,1.5234 1.8555,4.3945 0,3.6719 -3.0273,5.6641 -3.0274,1.9922 -8.75,1.9922 -4.4141,0 -6.7383,-1.5625 -2.3242,-1.5625 -2.3242,-4.4531 0,-1.9922 1.25,-3.3594 1.2695,-1.3477 3.5351,-1.875 -0.9179,-0.3906 -1.5234,-1.25 -0.5859,-0.8789 -0.5859,-1.836 0,-1.2109 0.6835,-2.0507 0.6836,-0.8399 2.0313,-1.6602 -1.6797,-0.7226 -2.7344,-2.3437 -1.0351,-1.6407 -1.0351,-3.8282 0,-3.5156 2.207,-5.4492 2.2266,-1.9336 6.3281,-1.9336 0.918,0 1.9141,0.1367 1.0156,0.1172 1.5234,0.2539 z m -16.9727,24.961 q 0,1.4844 1.3282,2.2851 1.3476,0.8008 3.7695,0.8008 3.75,0 5.5859,-1.0742 1.836,-1.0742 1.836,-2.8516 0,-1.4062 -1.0157,-2.0117 -0.9961,-0.5859 -3.7304,-0.5859 h -3.4766 q -1.9726,0 -3.1445,0.918 -1.1524,0.9375 -1.1524,2.5195 z m 1.9727,-17.9688 q 0,2.0313 1.0351,3.125 1.0547,1.0938 3.0079,1.0938 3.9843,0 3.9843,-4.2578 0,-2.1094 -0.9961,-3.2422 -0.9765,-1.1524 -2.9882,-1.1524 -1.9922,0 -3.0274,1.1329 -1.0156,1.1328 -1.0156,3.3007 z"
       style="font-weight:600;-inkscape-font-specification:'Open Sans Semi-Bold'"
       id="path27740" />
    <path
       d="m 2867.9509,1457.0101 q -4.1015,0 -6.3672,-2.9492 h -0.2734 q 0.2734,2.7344 0.2734,3.3203 v 8.8477 h -4.5898 v -31.211 h 3.7109 q 0.1563,0.6055 0.6446,2.8907 h 0.2343 q 2.1485,-3.2813 6.4454,-3.2813 4.0429,0 6.289,2.9297 2.2656,2.9297 2.2656,8.2227 0,5.2929 -2.3046,8.2617 -2.2852,2.9687 -6.3282,2.9687 z m -1.1133,-18.6328 q -2.7343,0 -4.0039,1.6016 -1.25,1.6015 -1.25,5.1172 v 0.6836 q 0,3.9453 1.25,5.7226 1.25,1.7578 4.0821,1.7578 2.3828,0 3.6718,-1.9531 1.2891,-1.9531 1.2891,-5.5664 0,-3.6328 -1.2891,-5.4883 -1.2695,-1.875 -3.75,-1.875 z"
       style="font-weight:600;-inkscape-font-specification:'Open Sans Semi-Bold'"
       id="path27742" />
    <path
       d="m 2886.5056,1456.6195 h -4.5898 v -30.3906 h 4.5898 z"
       style="font-weight:600;-inkscape-font-specification:'Open Sans Semi-Bold'"
       id="path27744" />
    <path
       d="m 2912.2283,1445.7797 q 0,5.2929 -2.7149,8.2617 -2.7148,2.9687 -7.5586,2.9687 -3.0273,0 -5.3515,-1.3672 -2.3242,-1.3671 -3.5742,-3.9257 -1.25,-2.5586 -1.25,-5.9375 0,-5.2539 2.6953,-8.2032 2.6953,-2.9492 7.5976,-2.9492 4.6875,0 7.4219,3.0274 2.7344,3.0078 2.7344,8.125 z m -15.7227,0 q 0,7.4804 5.5274,7.4804 5.4687,0 5.4687,-7.4804 0,-7.4024 -5.5078,-7.4024 -2.8906,0 -4.1992,1.9141 -1.2891,1.914 -1.2891,5.4883 z"
       style="font-weight:600;-inkscape-font-specification:'Open Sans Semi-Bold'"
       id="path27746" />
    <path
       d="m 2925.5486,1453.2992 q 1.6797,0 3.3594,-0.5273 v 3.457 q -0.7618,0.332 -1.9727,0.5469 -1.1914,0.2343 -2.4805,0.2343 -6.5234,0 -6.5234,-6.875 v -11.6406 h -2.9492 v -2.0312 l 3.164,-1.6797 1.5625,-4.5703 h 2.8321 v 4.8046 h 6.1523 v 3.4766 h -6.1523 v 11.5625 q 0,1.6602 0.8203,2.4609 0.8398,0.7813 2.1875,0.7813 z"
       style="font-weight:600;-inkscape-font-specification:'Open Sans Semi-Bold'"
       id="path27748" />
    <path
       d="m 2956.447,1456.6195 -8.2812,-23.8476 h -0.1563 q 0.3321,5.3125 0.3321,9.9609 v 13.8867 h -4.2383 v -28.5547 h 6.582 l 7.9297,22.7149 h 0.1172 l 8.164,-22.7149 h 6.6016 v 28.5547 h -4.4922 v -14.1211 q 0,-2.1289 0.098,-5.5469 0.1172,-3.4179 0.1953,-4.1406 h -0.1563 l -8.5742,23.8086 z"
       style="font-weight:600;-inkscape-font-specification:'Open Sans Semi-Bold'"
       id="path27750" />
    <path
       d="m 2981.0173,1428.0648 h 8.4766 q 5.8984,0 8.5156,1.7188 2.6367,1.7187 2.6367,5.4297 0,2.5 -1.289,4.1601 -1.2891,1.6602 -3.711,2.0899 v 0.1953 q 3.0079,0.5664 4.4141,2.2461 1.4258,1.6601 1.4258,4.5117 0,3.8476 -2.6953,6.0351 -2.6758,2.168 -7.461,2.168 h -10.3125 z m 4.668,11.7969 h 4.4922 q 2.9297,0 4.2773,-0.918 1.3477,-0.9375 1.3477,-3.164 0,-2.0118 -1.4649,-2.9102 -1.4453,-0.8984 -4.6093,-0.8984 h -4.043 z m 0,3.7891 v 9.0429 h 4.9609 q 2.9297,0 4.4141,-1.1133 1.5039,-1.1328 1.5039,-3.5546 0,-2.2266 -1.5234,-3.3008 -1.5235,-1.0742 -4.6289,-1.0742 z"
       style="font-weight:600;-inkscape-font-specification:'Open Sans Semi-Bold'"
       id="path27752" />
    <path
       d="m 3007.4236,1456.6195 v -28.5547 h 4.668 v 24.5508 h 12.0898 v 4.0039 z"
       style="font-weight:600;-inkscape-font-specification:'Open Sans Semi-Bold'"
       id="path27754" />
    <path
       d="m 3055.7634,1434.6273 q 0,2.7149 -1.582,4.5313 -1.582,1.7968 -4.4531,2.4218 v 0.1563 q 3.4375,0.4297 5.1562,2.1484 1.7188,1.6993 1.7188,4.5313 0,4.1211 -2.9102,6.3672 -2.9101,2.2265 -8.2812,2.2265 -4.7461,0 -8.0078,-1.5429 v -4.0821 q 1.8164,0.8985 3.8476,1.3868 2.0313,0.4882 3.9063,0.4882 3.3203,0 4.9609,-1.2304 1.6406,-1.2305 1.6406,-3.8086 0,-2.2852 -1.8164,-3.3594 -1.8164,-1.0742 -5.7031,-1.0742 h -2.4805 v -3.7305 h 2.5196 q 6.8359,0 6.8359,-4.7266 0,-1.8359 -1.1914,-2.832 -1.1914,-0.9961 -3.5156,-0.9961 -1.6211,0 -3.125,0.4688 -1.5039,0.4492 -3.5547,1.7773 l -2.2461,-3.2031 q 3.9258,-2.8906 9.1211,-2.8906 4.3164,0 6.7383,1.8554 2.4218,1.8555 2.4218,5.1172 z"
       style="font-weight:600;-inkscape-font-specification:'Open Sans Semi-Bold'"
       id="path27756" />
    <path
       d="m 3079.6697,1442.3422 q 0,7.4414 -2.4024,11.0547 -2.3828,3.6132 -7.3047,3.6132 -4.7656,0 -7.2265,-3.7304 -2.461,-3.7305 -2.461,-10.9375 0,-7.5586 2.3829,-11.1328 2.4023,-3.5938 7.3046,-3.5938 4.7852,0 7.2461,3.75 2.461,3.75 2.461,10.9766 z m -14.7461,0 q 0,5.8398 1.1914,8.3398 1.2109,2.5 3.8476,2.5 2.6368,0 3.8477,-2.5391 1.2305,-2.539 1.2305,-8.3007 0,-5.7422 -1.2305,-8.3008 -1.2109,-2.5781 -3.8477,-2.5781 -2.6367,0 -3.8476,2.5195 -1.1914,2.5195 -1.1914,8.3594 z"
       style="font-weight:600;-inkscape-font-specification:'Open Sans Semi-Bold'"
       id="path27758" />
    <path
       d="m 3092.7947,1427.6937 q 4.0625,0 6.4258,1.875 2.3632,1.8555 2.3632,4.9805 0,4.3945 -5.2734,6.9922 3.3594,1.6797 4.7656,3.5351 1.4258,1.8555 1.4258,4.1407 0,3.5351 -2.5976,5.664 -2.5977,2.1289 -7.0313,2.1289 -4.6484,0 -7.207,-1.9922 -2.5586,-1.9921 -2.5586,-5.6445 0,-2.3828 1.3281,-4.2773 1.3477,-1.9141 4.3945,-3.3985 -2.6172,-1.5625 -3.7304,-3.3007 -1.1133,-1.7383 -1.1133,-3.9063 0,-3.1055 2.4414,-4.9414 2.4414,-1.8555 6.3672,-1.8555 z m -5.293,21.5235 q 0,2.0312 1.4258,3.164 1.4258,1.1133 3.8672,1.1133 2.5195,0 3.9062,-1.1523 1.4063,-1.1719 1.4063,-3.1641 0,-1.582 -1.2891,-2.8906 -1.289,-1.3086 -3.9062,-2.4219 l -0.5664,-0.2539 q -2.5782,1.1328 -3.711,2.5 -1.1328,1.3477 -1.1328,3.1055 z m 5.2539,-17.9883 q -1.9531,0 -3.1445,0.9765 -1.1914,0.9571 -1.1914,2.6172 0,1.0157 0.4297,1.8164 0.4297,0.8008 1.25,1.4649 0.8203,0.6445 2.7734,1.5625 2.3438,-1.0352 3.3008,-2.168 0.9765,-1.1523 0.9765,-2.6758 0,-1.6601 -1.2109,-2.6172 -1.1914,-0.9765 -3.1836,-0.9765 z"
       style="font-weight:600;-inkscape-font-specification:'Open Sans Semi-Bold'"
       id="path27760" />
  </g>
</svg>
