<?xml version="1.0" encoding="UTF-8" standalone="no"?>
<svg
   width="3174.8032"
   height="1530.7086"
   viewBox="0 0 3174.8032 1530.7086"
   version="1.1"
   id="svg338"
   sodipodi:docname="printbed_outline_480.svg"
   inkscape:version="1.1 (c68e22c387, 2021-05-23)"
   xmlns:inkscape="http://www.inkscape.org/namespaces/inkscape"
   xmlns:sodipodi="http://sodipodi.sourceforge.net/DTD/sodipodi-0.dtd"
   xmlns="http://www.w3.org/2000/svg"
   xmlns:svg="http://www.w3.org/2000/svg"
   xmlns:rdf="http://www.w3.org/1999/02/22-rdf-syntax-ns#"
   xmlns:cc="http://creativecommons.org/ns#"
   xmlns:dc="http://purl.org/dc/elements/1.1/">
  <metadata
     id="metadata344">
    <rdf:RDF>
      <cc:Work
         rdf:about="">
        <dc:format>image/svg+xml</dc:format>
        <dc:type
           rdf:resource="http://purl.org/dc/dcmitype/StillImage" />
        <dc:title>MBL133</dc:title>
      </cc:Work>
    </rdf:RDF>
  </metadata>
  <defs
     id="defs342" />
  <sodipodi:namedview
     pagecolor="#ffffff"
     bordercolor="#666666"
     borderopacity="1"
     objecttolerance="10"
     gridtolerance="10"
     guidetolerance="10"
     inkscape:pageopacity="0"
     inkscape:pageshadow="2"
     inkscape:window-width="1920"
     inkscape:window-height="1017"
     id="namedview340"
     showgrid="false"
     units="px"
     scale-x="1"
     inkscape:zoom="3.1641221"
     inkscape:cx="2949.7913"
     inkscape:cy="1444.7925"
     inkscape:window-x="-8"
     inkscape:window-y="-8"
     inkscape:window-maximized="1"
     inkscape:current-layer="svg338"
     inkscape:pagecheckerboard="0"
     height="1530.7086px" />
  <title
     id="title2">MBL133</title>
  <line
     x1="0.70999998"
     y1="0.70999998"
     x2="0.70999998"
     y2="1530,70862"
     id="line4"
     style="fill:none;stroke:#ffffff;stroke-width:1.42;stroke-linecap:round;stroke-linejoin:round" />
  <line
     x1="3174"
     y1="1530,70862"
     x2="3174"
     y2="0.70999998"
     id="line10"
     style="fill:none;stroke:#ffffff;stroke-width:1.42;stroke-linecap:round;stroke-linejoin:round" />
  <line
     x1="0.70999998"
     y1="1530,70862"
     x2="3174"
     y2="1530,70862"
     id="line14"
     style="fill:none;stroke:#ffffff;stroke-width:1.42;stroke-linecap:round;stroke-linejoin:round" />
  <line
     x1="3174"
     y1="0.70999998"
     x2="0.70999998"
     y2="0.70999998"
     id="line24"
     style="fill:none;stroke:#ffffff;stroke-width:1.42;stroke-linecap:round;stroke-linejoin:round" />
  <g
     aria-label="Meltingplot MBL 480"
     id="text3543"
     style="font-weight:600;font-size:40px;line-height:1.25;font-family:'Open Sans';-inkscape-font-specification:'Open Sans, Semi-Bold';letter-spacing:0px;word-spacing:0px;stroke:#ffffff;stroke-opacity:1;fill:#ffffff;fill-opacity:1">
    <path
       d="m 2724.3225,1456.5614 -8.2812,-23.8477 h -0.1563 q 0.332,5.3125 0.332,9.961 v 13.8867 h -4.2382 v -28.5547 h 6.582 l 7.9297,22.7149 h 0.1172 l 8.164,-22.7149 h 6.6016 v 28.5547 h -4.4922 v -14.1211 q 0,-2.1289 0.098,-5.5469 0.1171,-3.4179 0.1953,-4.1406 h -0.1563 l -8.5742,23.8086 z"
       id="path9679"
       style="stroke:#ffffff;stroke-opacity:1;fill:#ffffff;fill-opacity:1" />
    <path
       d="m 2757.8381,1456.952 q -5.039,0 -7.8906,-2.9297 -2.832,-2.9492 -2.832,-8.1054 0,-5.293 2.6367,-8.3203 2.6367,-3.0274 7.2461,-3.0274 4.2773,0 6.7578,2.5977 2.4805,2.5976 2.4805,7.1484 v 2.4805 h -14.3946 q 0.098,3.1445 1.6993,4.8437 1.6015,1.6797 4.5117,1.6797 1.914,0 3.5547,-0.3515 1.6601,-0.3711 3.5547,-1.211 v 3.7305 q -1.6797,0.8008 -3.3985,1.1328 -1.7187,0.332 -3.9258,0.332 z m -0.8398,-18.9062 q -2.1875,0 -3.5156,1.3867 -1.3086,1.3867 -1.5625,4.043 h 9.8047 q -0.039,-2.6758 -1.2891,-4.043 -1.25,-1.3867 -3.4375,-1.3867 z"
       id="path9681"
       style="stroke:#ffffff;stroke-opacity:1;fill:#ffffff;fill-opacity:1" />
    <path
       d="m 2776.0413,1456.5614 h -4.5899 v -30.3906 h 4.5899 z"
       id="path9683"
       style="stroke:#ffffff;stroke-opacity:1;fill:#ffffff;fill-opacity:1" />
    <path
       d="m 2790.6506,1453.2411 q 1.6797,0 3.3594,-0.5274 v 3.4571 q -0.7617,0.332 -1.9726,0.5469 -1.1915,0.2343 -2.4805,0.2343 -6.5235,0 -6.5235,-6.875 v -11.6406 h -2.9492 v -2.0312 l 3.1641,-1.6797 1.5625,-4.5703 h 2.832 v 4.8046 h 6.1524 v 3.4766 h -6.1524 v 11.5625 q 0,1.6602 0.8203,2.4609 0.8399,0.7813 2.1875,0.7813 z"
       id="path9685"
       style="stroke:#ffffff;stroke-opacity:1;fill:#ffffff;fill-opacity:1" />
    <path
       d="m 2802.9163,1456.5614 h -4.5899 v -21.6016 h 4.5899 z m -4.8633,-27.3242 q 0,-1.2305 0.664,-1.8945 0.6836,-0.6641 1.9336,-0.6641 1.211,0 1.875,0.6641 0.6836,0.664 0.6836,1.8945 0,1.1719 -0.6836,1.8555 -0.664,0.664 -1.875,0.664 -1.25,0 -1.9336,-0.664 -0.664,-0.6836 -0.664,-1.8555 z"
       id="path9687"
       style="stroke:#ffffff;stroke-opacity:1;fill:#ffffff;fill-opacity:1" />
    <path
       d="m 2828.4827,1456.5614 h -4.6094 v -13.2812 q 0,-2.5 -1.0156,-3.7305 -0.9961,-1.2305 -3.1836,-1.2305 -2.9102,0 -4.2578,1.7188 -1.3477,1.7187 -1.3477,5.7617 v 10.7617 h -4.5898 v -21.6016 h 3.5937 l 0.6445,2.8321 h 0.2344 q 0.9766,-1.543 2.7735,-2.3828 1.7968,-0.8399 3.9843,-0.8399 7.7735,0 7.7735,7.9102 z"
       id="path9689"
       style="stroke:#ffffff;stroke-opacity:1;fill:#ffffff;fill-opacity:1" />
    <path
       d="m 2853.1116,1434.9598 v 2.5196 l -3.6914,0.6836 q 0.5078,0.6836 0.8398,1.6797 0.332,0.996 0.332,2.1093 0,3.3399 -2.3046,5.2539 -2.3047,1.9141 -6.3477,1.9141 -1.0352,0 -1.875,-0.1563 -1.4844,0.918 -1.4844,2.1485 0,0.7422 0.6836,1.1133 0.7031,0.3711 2.5586,0.3711 h 3.7695 q 3.5743,0 5.4297,1.5234 1.8555,1.5234 1.8555,4.3945 0,3.6719 -3.0273,5.6641 -3.0274,1.9922 -8.75,1.9922 -4.4141,0 -6.7383,-1.5625 -2.3242,-1.5625 -2.3242,-4.4531 0,-1.9922 1.25,-3.3594 1.2695,-1.3477 3.5351,-1.875 -0.918,-0.3906 -1.5234,-1.25 -0.586,-0.8789 -0.586,-1.836 0,-1.2109 0.6836,-2.0507 0.6836,-0.8399 2.0313,-1.6602 -1.6797,-0.7227 -2.7344,-2.3437 -1.0352,-1.6407 -1.0352,-3.8282 0,-3.5156 2.2071,-5.4492 2.2265,-1.9336 6.3281,-1.9336 0.918,0 1.9141,0.1367 1.0156,0.1172 1.5234,0.2539 z m -16.9727,24.961 q 0,1.4844 1.3281,2.2851 1.3477,0.8008 3.7696,0.8008 3.75,0 5.5859,-1.0742 1.8359,-1.0742 1.8359,-2.8516 0,-1.4062 -1.0156,-2.0117 -0.9961,-0.5859 -3.7304,-0.5859 h -3.4766 q -1.9727,0 -3.1445,0.9179 -1.1524,0.9375 -1.1524,2.5196 z m 1.9727,-17.9688 q 0,2.0313 1.0351,3.125 1.0547,1.0938 3.0078,1.0938 3.9844,0 3.9844,-4.2578 0,-2.1094 -0.9961,-3.2422 -0.9765,-1.1524 -2.9883,-1.1524 -1.9921,0 -3.0273,1.1328 -1.0156,1.1329 -1.0156,3.3008 z"
       id="path9691"
       style="stroke:#ffffff;stroke-opacity:1;fill:#ffffff;fill-opacity:1" />
    <path
       d="m 2868.0725,1456.952 q -4.1016,0 -6.3672,-2.9492 h -0.2734 q 0.2734,2.7344 0.2734,3.3203 v 8.8477 h -4.5898 v -31.211 h 3.7109 q 0.1563,0.6055 0.6445,2.8907 h 0.2344 q 2.1485,-3.2813 6.4453,-3.2813 4.043,0 6.2891,2.9297 2.2656,2.9297 2.2656,8.2227 0,5.2929 -2.3047,8.2617 -2.2851,2.9687 -6.3281,2.9687 z m -1.1133,-18.6328 q -2.7343,0 -4.0039,1.6016 -1.25,1.6015 -1.25,5.1172 v 0.6836 q 0,3.9453 1.25,5.7226 1.25,1.7578 4.0821,1.7578 2.3828,0 3.6718,-1.9531 1.2891,-1.9531 1.2891,-5.5664 0,-3.6328 -1.2891,-5.4883 -1.2695,-1.875 -3.75,-1.875 z"
       id="path9693"
       style="stroke:#ffffff;stroke-opacity:1;fill:#ffffff;fill-opacity:1" />
    <path
       d="m 2886.6272,1456.5614 h -4.5898 v -30.3906 h 4.5898 z"
       id="path9695"
       style="stroke:#ffffff;stroke-opacity:1;fill:#ffffff;fill-opacity:1" />
    <path
       d="m 2912.3499,1445.7216 q 0,5.2929 -2.7149,8.2617 -2.7148,2.9687 -7.5586,2.9687 -3.0273,0 -5.3515,-1.3672 -2.3243,-1.3671 -3.5743,-3.9257 -1.25,-2.5586 -1.25,-5.9375 0,-5.2539 2.6953,-8.2032 2.6954,-2.9492 7.5977,-2.9492 4.6875,0 7.4219,3.0274 2.7344,3.0078 2.7344,8.125 z m -15.7227,0 q 0,7.4804 5.5273,7.4804 5.4688,0 5.4688,-7.4804 0,-7.4024 -5.5078,-7.4024 -2.8906,0 -4.1992,1.9141 -1.2891,1.914 -1.2891,5.4883 z"
       id="path9697"
       style="stroke:#ffffff;stroke-opacity:1;fill:#ffffff;fill-opacity:1" />
    <path
       d="m 2925.6702,1453.2411 q 1.6797,0 3.3593,-0.5274 v 3.4571 q -0.7617,0.332 -1.9726,0.5469 -1.1914,0.2343 -2.4805,0.2343 -6.5234,0 -6.5234,-6.875 v -11.6406 h -2.9492 v -2.0312 l 3.164,-1.6797 1.5625,-4.5703 h 2.8321 v 4.8046 h 6.1523 v 3.4766 h -6.1523 v 11.5625 q 0,1.6602 0.8203,2.4609 0.8398,0.7813 2.1875,0.7813 z"
       id="path9699"
       style="stroke:#ffffff;stroke-opacity:1;fill:#ffffff;fill-opacity:1" />
    <path
       d="m 2956.5686,1456.5614 -8.2812,-23.8477 h -0.1563 q 0.332,5.3125 0.332,9.961 v 13.8867 h -4.2382 v -28.5547 h 6.582 l 7.9297,22.7149 h 0.1172 l 8.164,-22.7149 h 6.6016 v 28.5547 h -4.4922 v -14.1211 q 0,-2.1289 0.098,-5.5469 0.1171,-3.4179 0.1953,-4.1406 h -0.1563 l -8.5742,23.8086 z"
       id="path9701"
       style="stroke:#ffffff;stroke-opacity:1;fill:#ffffff;fill-opacity:1" />
    <path
       d="m 2981.1389,1428.0067 h 8.4766 q 5.8984,0 8.5156,1.7188 2.6367,1.7187 2.6367,5.4297 0,2.5 -1.289,4.1601 -1.2891,1.6602 -3.711,2.0899 v 0.1953 q 3.0078,0.5664 4.4141,2.2461 1.4258,1.6601 1.4258,4.5117 0,3.8476 -2.6953,6.0351 -2.6758,2.168 -7.461,2.168 h -10.3125 z m 4.668,11.7969 h 4.4922 q 2.9297,0 4.2773,-0.918 1.3477,-0.9375 1.3477,-3.164 0,-2.0118 -1.4649,-2.9102 -1.4453,-0.8984 -4.6093,-0.8984 h -4.043 z m 0,3.7891 v 9.0429 h 4.9609 q 2.9297,0 4.4141,-1.1133 1.5039,-1.1328 1.5039,-3.5546 0,-2.2266 -1.5234,-3.3008 -1.5235,-1.0742 -4.629,-1.0742 z"
       id="path9703"
       style="stroke:#ffffff;stroke-opacity:1;fill:#ffffff;fill-opacity:1" />
    <path
       d="m 3007.5452,1456.5614 v -28.5547 h 4.6679 v 24.5508 h 12.0899 v 4.0039 z"
       id="path9705"
       style="stroke:#ffffff;stroke-opacity:1;fill:#ffffff;fill-opacity:1" />
    <path
       d="m 3057.9749,1450.3309 h -3.8477 v 6.2305 h -4.4727 v -6.2305 h -13.0468 v -3.5351 l 13.0468,-18.8672 h 4.4727 v 18.5937 h 3.8477 z m -8.3204,-3.8086 v -7.1679 q 0,-3.8282 0.1954,-6.2696 h -0.1563 q -0.5469,1.2891 -1.7187,3.125 l -7.0899,10.3125 z"
       id="path9707"
       style="stroke:#ffffff;stroke-opacity:1;fill:#ffffff;fill-opacity:1" />
    <path
       d="m 3070.0842,1427.6356 q 4.0625,0 6.4258,1.875 2.3633,1.8555 2.3633,4.9805 0,4.3945 -5.2734,6.9922 3.3593,1.6797 4.7656,3.5351 1.4258,1.8555 1.4258,4.1407 0,3.5351 -2.5977,5.664 -2.5977,2.1289 -7.0312,2.1289 -4.6485,0 -7.2071,-1.9922 -2.5586,-1.9921 -2.5586,-5.6445 0,-2.3828 1.3282,-4.2773 1.3476,-1.9141 4.3945,-3.3985 -2.6172,-1.5625 -3.7305,-3.3008 -1.1133,-1.7382 -1.1133,-3.9062 0,-3.1055 2.4414,-4.9414 2.4414,-1.8555 6.3672,-1.8555 z m -5.2929,21.5235 q 0,2.0312 1.4257,3.164 1.4258,1.1133 3.8672,1.1133 2.5196,0 3.9063,-1.1523 1.4062,-1.1719 1.4062,-3.1641 0,-1.582 -1.289,-2.8906 -1.2891,-1.3086 -3.9063,-2.4219 l -0.5664,-0.2539 q -2.5781,1.1328 -3.7109,2.5 -1.1328,1.3476 -1.1328,3.1055 z m 5.2539,-17.9883 q -1.9532,0 -3.1446,0.9765 -1.1914,0.9571 -1.1914,2.6172 0,1.0157 0.4297,1.8164 0.4297,0.8008 1.25,1.4649 0.8203,0.6445 2.7735,1.5625 2.3437,-1.0352 3.3007,-2.168 0.9766,-1.1523 0.9766,-2.6758 0,-1.6601 -1.2109,-2.6172 -1.1914,-0.9765 -3.1836,-0.9765 z"
       id="path9709"
       style="stroke:#ffffff;stroke-opacity:1;fill:#ffffff;fill-opacity:1" />
    <path
       d="m 3102.6233,1442.2841 q 0,7.4414 -2.4024,11.0546 -2.3828,3.6133 -7.3046,3.6133 -4.7657,0 -7.2266,-3.7304 -2.4609,-3.7305 -2.4609,-10.9375 0,-7.5586 2.3828,-11.1329 2.4023,-3.5937 7.3047,-3.5937 4.7851,0 7.2461,3.75 2.4609,3.75 2.4609,10.9766 z m -14.7461,0 q 0,5.8398 1.1914,8.3398 1.2109,2.5 3.8477,2.5 2.6367,0 3.8476,-2.5391 1.2305,-2.539 1.2305,-8.3007 0,-5.7422 -1.2305,-8.3008 -1.2109,-2.5781 -3.8476,-2.5781 -2.6368,0 -3.8477,2.5195 -1.1914,2.5195 -1.1914,8.3594 z"
       id="path9711"
       style="stroke:#ffffff;stroke-opacity:1;fill:#ffffff;fill-opacity:1" />
  </g>
</svg>
