<?xml version="1.0" encoding="UTF-8" standalone="no"?>
<svg
   xmlns:dc="http://purl.org/dc/elements/1.1/"
   xmlns:cc="http://creativecommons.org/ns#"
   xmlns:rdf="http://www.w3.org/1999/02/22-rdf-syntax-ns#"
   xmlns:svg="http://www.w3.org/2000/svg"
   xmlns="http://www.w3.org/2000/svg"
   viewBox="0 0 681.31493 681.31496"
   width="681.31494"
   height="681.31494"
   version="1.1"
   id="svg1253">
  <metadata
     id="metadata1257">
    <rdf:RDF>
      <cc:Work
         rdf:about="">
        <dc:format>image/svg+xml</dc:format>
        <dc:type
           rdf:resource="http://purl.org/dc/dcmitype/StillImage" />
        <dc:title></dc:title>
      </cc:Work>
    </rdf:RDF>
  </metadata>
  <defs
     id="defs1079">
    <marker
       id="DistanceX"
       orient="auto"
       refX="0"
       refY="0"
       style="overflow:visible">
      <path
         d="M 3,-3 -3,3 M 0,-5 V 5"
         style="stroke:#000000;stroke-width:0.5"
         id="path1067" />
    </marker>
    <pattern
       id="Hatch"
       patternUnits="userSpaceOnUse"
       width="8"
       height="8"
       x="0"
       y="0">
      <path
         d="M8 4 l-4,4"
         stroke="#000000"
         stroke-width="0.25"
         linecap="square"
         id="path1070" />
      <path
         d="M6 2 l-4,4"
         stroke="#000000"
         stroke-width="0.25"
         linecap="square"
         id="path1072" />
      <path
         d="M4 0 l-4,4"
         stroke="#000000"
         stroke-width="0.25"
         linecap="square"
         id="path1074" />
    </pattern>
    <symbol
       id="*MODEL_SPACE" />
    <symbol
       id="*PAPER_SPACE" />
  </defs>
  <g
     id="g1249"
     transform="translate(-679.81496,-1122.0197)">
    <path
       d="M 680.31496,1122.5197 H 1360.6299"
       style="fill:none;stroke:#ffffff;stroke-opacity:1;stroke-linecap:round;stroke-width:3;stroke-miterlimit:4;stroke-dasharray:none"
       id="path1081" />
    <path
       d="m 1360.6299,1122.5197 v 680.3149"
       style="fill:none;stroke:#ffffff;stroke-opacity:1;stroke-linecap:round;stroke-width:3;stroke-miterlimit:4;stroke-dasharray:none"
       id="path1083" />
    <path
       d="M 1360.6299,1802.8346 H 680.31496"
       style="fill:none;stroke:#ffffff;stroke-opacity:1;stroke-linecap:round;stroke-width:3;stroke-miterlimit:4;stroke-dasharray:none"
       id="path1085" />
    <path
       d="M 680.31496,1802.8346 V 1122.5197"
       style="fill:none;stroke:#ffffff;stroke-opacity:1;stroke-linecap:round;stroke-width:3;stroke-miterlimit:4;stroke-dasharray:none"
       id="path1087" />
    <path
       d="m 680.31496,1122.5197 v 170.0787"
       style="fill:none;stroke:#ffffff;stroke-opacity:1;stroke-linecap:round"
       id="path1089" />
    <path
       d="M 680.31496,1292.5984 H 1360.6299"
       style="fill:none;stroke:#ffffff;stroke-opacity:1;stroke-linecap:round"
       id="path1091" />
    <path
       d="m 680.31496,1292.5984 v 170.0788"
       style="fill:none;stroke:#ffffff;stroke-opacity:1;stroke-linecap:round"
       id="path1093" />
    <path
       d="m 680.31496,1462.6772 v 170.0787"
       style="fill:none;stroke:#ffffff;stroke-opacity:1;stroke-linecap:round"
       id="path1095" />
    <path
       d="M 680.31496,1632.7559 H 1360.6299"
       style="fill:none;stroke:#ffffff;stroke-opacity:1;stroke-linecap:round"
       id="path1097" />
    <path
       d="M 680.31496,1122.5197 H 850.3937"
       style="fill:none;stroke:#ffffff;stroke-opacity:1;stroke-linecap:round"
       id="path1099" />
    <path
       d="m 850.3937,1122.5197 h 170.0787"
       style="fill:none;stroke:#ffffff;stroke-opacity:1;stroke-linecap:round"
       id="path1101" />
    <path
       d="m 1020.4724,1122.5197 h 170.0788"
       style="fill:none;stroke:#ffffff;stroke-opacity:1;stroke-linecap:round"
       id="path1103" />
    <path
       d="m 1190.5512,1122.5197 v 510.2362"
       style="fill:none;stroke:#ffffff;stroke-opacity:1;stroke-linecap:round"
       id="path1105" />
    <path
       d="m 1020.4724,1632.7559 v 170.0787"
       style="fill:none;stroke:#ffffff;stroke-opacity:1;stroke-linecap:round"
       id="path1107" />
    <path
       d="M 680.31496,1462.6772 H 850.3937"
       style="fill:none;stroke:#ffffff;stroke-opacity:1;stroke-linecap:round"
       id="path1109" />
    <path
       d="m 1020.4724,1122.5197 v 170.0787"
       style="fill:none;stroke:#ffffff;stroke-opacity:1;stroke-linecap:round"
       id="path1111" />
    <path
       d="m 1190.5512,1462.6772 h 170.0787"
       style="fill:none;stroke:#ffffff;stroke-opacity:1;stroke-linecap:round"
       id="path1113" />
    <path
       d="m 1190.5512,1632.7559 -0.056,128.3841"
       style="fill:none;stroke:#ffffff;stroke-opacity:1;stroke-linecap:round"
       id="path1115" />
    <path
       d="m 1053.0199,1797.0857 -12.9186,-30.2325 h -4.9262 l 12.9187,30.2324 z"
       style="fill:none;stroke:#ffffff;stroke-opacity:1;stroke-linecap:round"
       id="path1117" />
    <path
       d="m 1065.4538,1766.8458 h -4.9261 l -8.0207,18.7726 2.4223,5.8596 z"
       style="fill:none;stroke:#ffffff;stroke-opacity:1;stroke-linecap:round"
       id="path1119" />
    <path
       d="m 1099.988,1797.072 v -4.459 l -25.8197,0.01 v -8.2385 l 21.3607,-0.01 v -4.459 l -25.8197,0.01 v 17.1565 z"
       style="fill:none;stroke:#ffffff;stroke-opacity:1;stroke-linecap:round"
       id="path1121" />
    <path
       d="m 1100.0229,1771.2947 v -4.459 l -30.3211,0.01 v 4.459 z"
       style="fill:none;stroke:#ffffff;stroke-opacity:1;stroke-linecap:round"
       id="path1123" />
    <path
       d="m 1104.2721,1779.9142 0.01,17.1565 h 4.459 v -12.6975 h 9.0879 l 10.8751,12.6943 h 5.8604 l -10.8751,-12.6944 3.2699,-9e-4 a 8.7693544,8.7693544 0 0 0 -0.01,-17.5387 l -22.6772,0.01 v 4.459 l 22.6772,-0.01 a 4.310361,4.310361 0 0 1 0,8.6207 z"
       style="fill:none;stroke:#ffffff;stroke-opacity:1;stroke-linecap:round"
       id="path1125" />
    <path
       d="m 1151.7048,1771.2796 0.01,25.7773 h 4.459 l -0.01,-30.2363 -17.3688,0.01 v 4.459 z"
       style="fill:none;stroke:#ffffff;stroke-opacity:1;stroke-linecap:round"
       id="path1127" />
    <path
       d="m 1169.0736,1771.2746 v -4.459 h -8.4508 v 4.459 z"
       style="fill:none;stroke:#ffffff;stroke-opacity:1;stroke-linecap:round"
       id="path1129" />
    <path
       d="m 1203.6065,1797.0417 v -4.459 l -25.8197,0.01 v -8.2386 l 21.3607,-0.01 v -4.459 l -25.8197,0.01 0.01,17.1565 z"
       style="fill:none;stroke:#ffffff;stroke-opacity:1;stroke-linecap:round"
       id="path1131" />
    <path
       d="m 1203.6415,1771.2645 v -4.459 l -30.3212,0.01 v 4.459 z"
       style="fill:none;stroke:#ffffff;stroke-opacity:1;stroke-linecap:round"
       id="path1133" />
    <path
       d="m 1208.0231,1797.0404 h 5.6055 l 9.3818,-11.5537 9.3885,11.5482 h 5.6056 l -12.1923,-14.9872 12.3109,-15.2066 h -5.6481 l -9.4666,11.7236 -9.4735,-11.718 h -5.6481 l 12.2773,15.1995 z"
       style="fill:none;stroke:#ffffff;stroke-opacity:1;stroke-linecap:round"
       id="path1135" />
    <path
       d="m 1278.767,1778.4619 -10.705,-11.6752 h -4.459 v 4.459 l 2.548,-8e-4 12.6166,13.798 10.6557,-11.6814 0.01,23.6539 h 4.459 l -0.01,-30.2363 h -4.459 z"
       style="fill:none;stroke:#ffffff;stroke-opacity:1;stroke-linecap:round"
       id="path1137" />
    <path
       d="m 1263.6118,1797.0242 h 4.459 v -17.1565 h -4.459 z"
       style="fill:none;stroke:#ffffff;stroke-opacity:1;stroke-linecap:round"
       id="path1139" />
    <path
       d="m 1302.5962,1797.0128 -0.01,-30.2362 h -4.459 l 0.01,30.2362 z"
       style="fill:none;stroke:#ffffff;stroke-opacity:1;stroke-linecap:round"
       id="path1141" />
    <path
       d="m 1309.3833,1771.2336 23.5765,25.7704 h 4.1617 l -0.01,-30.2362 h -4.459 l 0.01,23.3567 -21.3675,-23.3504 h -4.459 v 4.4589 z"
       style="fill:none;stroke:#ffffff;stroke-opacity:1;stroke-linecap:round"
       id="path1143" />
    <path
       d="m 1311.3018,1797.0103 v -17.1565 h -4.459 v 17.1565 z"
       style="fill:none;stroke:#ffffff;stroke-opacity:1;stroke-linecap:round"
       id="path1145" />
    <path
       d="m 1345.8272,1797.0002 -0.01,-30.2362 h -4.459 l 0.01,30.2362 z"
       style="fill:none;stroke:#ffffff;stroke-opacity:1;stroke-linecap:round"
       id="path1147" />
    <path
       d="m 1020.4724,1292.5984 v 340.1575"
       style="fill:none;stroke:#ffffff;stroke-opacity:1;stroke-linecap:round"
       id="path1149" />
    <path
       d="m 850.3937,1462.6772 h 340.1575"
       style="fill:none;stroke:#ffffff;stroke-opacity:1;stroke-linecap:round"
       id="path1151" />
    <path
       d="m 850.3937,1292.5984 v 510.2362"
       style="fill:none;stroke:#ffffff;stroke-opacity:1;stroke-linecap:round"
       id="path1153" />
    <path
       d="M 850.3937,1292.5984 V 1171.6535"
       style="fill:none;stroke:#ffffff;stroke-opacity:1;stroke-linecap:round"
       id="path1155" />
    <path
       d="m 850.3937,1171.6535 v -49.1338"
       style="fill:none;stroke:#ffffff;stroke-opacity:1;stroke-linecap:round"
       id="path1157" />
    <path
       d="m 757.62544,1786.0392 c -0.17462,1.1123 -0.90616,2.0121 -1.41587,2.9844"
       style="fill:none;stroke:#ffffff;stroke-opacity:1;stroke-linecap:round"
       id="path1159" />
    <path
       d="m 755.40881,1793.8958 c 0.89357,-0.2628 1.62826,-0.933 2.08134,-1.7337"
       style="fill:none;stroke:#ffffff;stroke-opacity:1;stroke-linecap:round"
       id="path1161" />
    <path
       d="m 757.49015,1792.1621 c 0.79446,-1.364 1.58263,-2.7326 2.3708,-4.0982"
       style="fill:none;stroke:#ffffff;stroke-opacity:1;stroke-linecap:round"
       id="path1163" />
    <path
       d="m 760.15356,1795.7364 c -0.84166,0.6686 -1.97593,0.6639 -2.99536,0.6623"
       style="fill:none;stroke:#ffffff;stroke-opacity:1;stroke-linecap:round"
       id="path1165" />
    <path
       d="m 751.32481,1791.3645 c -14.31134,0.01 -28.62424,0 -42.93557,0"
       style="fill:none;stroke:#ffffff;stroke-opacity:1;stroke-linecap:round"
       id="path1167" />
    <path
       d="m 701.47978,1782.2541 c -0.51916,0.9502 -1.22709,1.8737 -1.3089,2.9891"
       style="fill:none;stroke:#ffffff;stroke-opacity:1;stroke-linecap:round"
       id="path1169" />
    <path
       d="m 705.07452,1793.7007 c 0.58523,0.302 1.25855,0.3288 1.90199,0.3681"
       style="fill:none;stroke:#ffffff;stroke-opacity:1;stroke-linecap:round"
       id="path1171" />
    <path
       d="m 706.97651,1794.0688 c 15.62337,0 31.24517,0 46.86697,0"
       style="fill:none;stroke:#ffffff;stroke-opacity:1;stroke-linecap:round"
       id="path1173" />
    <path
       d="m 725.14846,1736.9855 c 1.78714,-2.0089 4.74474,-2.8097 7.31691,-2.0735"
       style="fill:none;stroke:#ffffff;stroke-opacity:1;stroke-linecap:round"
       id="path1175" />
    <path
       d="m 703.84114,1787.4111 c -0.72839,-1.213 -0.68906,-2.8176 0.0755,-4.0038"
       style="fill:none;stroke:#ffffff;stroke-opacity:1;stroke-linecap:round"
       id="path1177" />
    <path
       d="m 757.1582,1796.3987 c -17.99102,0 -35.98048,0 -53.96994,0"
       style="fill:none;stroke:#ffffff;stroke-opacity:1;stroke-linecap:round"
       id="path1179" />
    <path
       d="m 697.89447,1791.4542 c -0.65759,-1.2413 -1.62668,-2.4102 -1.64399,-3.8827"
       style="fill:none;stroke:#ffffff;stroke-opacity:1;stroke-linecap:round"
       id="path1181" />
    <path
       d="m 764.12115,1789.6418 c -0.85896,1.4977 -1.72736,2.9923 -2.58948,4.4884"
       style="fill:none;stroke:#ffffff;stroke-opacity:1;stroke-linecap:round"
       id="path1183" />
    <path
       d="m 725.89257,1739.9667 c -8.13497,14.099 -16.27782,28.1916 -24.41279,42.2874"
       style="fill:none;stroke:#ffffff;stroke-opacity:1;stroke-linecap:round"
       id="path1185" />
    <path
       d="m 756.99616,1783.2877 c 0.49713,0.8134 0.80705,1.795 0.62928,2.7515"
       style="fill:none;stroke:#ffffff;stroke-opacity:1;stroke-linecap:round"
       id="path1187" />
    <path
       d="m 722.53066,1741.134 c 0.85425,-1.3938 1.54016,-2.9057 2.6178,-4.1485"
       style="fill:none;stroke:#ffffff;stroke-opacity:1;stroke-linecap:round"
       id="path1189" />
    <path
       d="m 759.86095,1788.0639 c 0.4578,-0.7834 0.95492,-1.6188 0.94549,-2.5564"
       style="fill:none;stroke:#ffffff;stroke-opacity:1;stroke-linecap:round"
       id="path1191" />
    <path
       d="m 696.25048,1787.5715 c 0.044,-1.1893 0.72839,-2.1836 1.30261,-3.1778"
       style="fill:none;stroke:#ffffff;stroke-opacity:1;stroke-linecap:round"
       id="path1193" />
    <path
       d="m 697.55309,1784.3937 c 8.32848,-14.4183 16.65067,-28.8414 24.97757,-43.2597"
       style="fill:none;stroke:#ffffff;stroke-opacity:1;stroke-linecap:round"
       id="path1195" />
    <path
       d="m 705.44422,1790.0493 c -0.62141,-0.8228 -1.08078,-1.7525 -1.60308,-2.6382"
       style="fill:none;stroke:#ffffff;stroke-opacity:1;stroke-linecap:round"
       id="path1197" />
    <path
       d="m 729.50305,1737.0831 c -1.61724,0.2532 -2.87107,1.485 -3.61048,2.8836"
       style="fill:none;stroke:#ffffff;stroke-opacity:1;stroke-linecap:round"
       id="path1199" />
    <path
       d="m 753.9426,1791.1537 c -0.84166,0.291 -1.7431,0.1998 -2.61779,0.2108"
       style="fill:none;stroke:#ffffff;stroke-opacity:1;stroke-linecap:round"
       id="path1201" />
    <path
       d="m 735.19487,1736.3783 c 1.18775,0.9675 1.85636,2.3818 2.62565,3.6686"
       style="fill:none;stroke:#ffffff;stroke-opacity:1;stroke-linecap:round"
       id="path1203" />
    <path
       d="m 756.20957,1789.0236 c -0.49556,0.9234 -1.23181,1.8123 -2.26697,2.1301"
       style="fill:none;stroke:#ffffff;stroke-opacity:1;stroke-linecap:round"
       id="path1205" />
    <path
       d="m 700.17088,1785.2432 c -0.0787,0.8212 0.25014,1.5984 0.64658,2.2969"
       style="fill:none;stroke:#ffffff;stroke-opacity:1;stroke-linecap:round"
       id="path1207" />
    <path
       d="m 732.46537,1734.912 c 1.00527,0.2691 1.94604,0.7851 2.7295,1.4663"
       style="fill:none;stroke:#ffffff;stroke-opacity:1;stroke-linecap:round"
       id="path1209" />
    <path
       d="m 764.00788,1785.3989 c 0.27531,0.5396 0.59467,1.0824 0.65288,1.6991"
       style="fill:none;stroke:#ffffff;stroke-opacity:1;stroke-linecap:round"
       id="path1211" />
    <path
       d="m 700.81746,1787.5401 c 0.86211,1.5024 1.73523,3 2.59734,4.5024"
       style="fill:none;stroke:#ffffff;stroke-opacity:1;stroke-linecap:round"
       id="path1213" />
    <path
       d="m 735.18857,1740.1524 c -0.57579,-1.0651 -1.33879,-2.0908 -2.4416,-2.6477"
       style="fill:none;stroke:#ffffff;stroke-opacity:1;stroke-linecap:round"
       id="path1215" />
    <path
       d="m 759.89084,1782.9353 c -8.23252,-14.261 -16.46661,-28.522 -24.70227,-42.7829"
       style="fill:none;stroke:#ffffff;stroke-opacity:1;stroke-linecap:round"
       id="path1217" />
    <path
       d="m 732.74697,1737.5047 c -1.00526,-0.4625 -2.15527,-0.6828 -3.24392,-0.4216"
       style="fill:none;stroke:#ffffff;stroke-opacity:1;stroke-linecap:round"
       id="path1219" />
    <path
       d="m 760.80644,1785.5075 c 0.0236,-0.9376 -0.44522,-1.7934 -0.9156,-2.5722"
       style="fill:none;stroke:#ffffff;stroke-opacity:1;stroke-linecap:round"
       id="path1221" />
    <path
       d="m 703.4148,1792.0425 c 0.40117,0.6797 0.92661,1.3215 1.65972,1.6582"
       style="fill:none;stroke:#ffffff;stroke-opacity:1;stroke-linecap:round"
       id="path1223" />
    <path
       d="m 703.18826,1796.3971 c -1.19877,0.03 -2.44159,-0.4137 -3.1747,-1.397"
       style="fill:none;stroke:#ffffff;stroke-opacity:1;stroke-linecap:round"
       id="path1225" />
    <path
       d="m 733.28658,1742.38 c 0.49241,0.6214 0.8511,1.3325 1.25226,2.0137"
       style="fill:none;stroke:#ffffff;stroke-opacity:1;stroke-linecap:round"
       id="path1227" />
    <path
       d="m 753.84348,1794.072 c 0.52545,-0.01 1.05247,-0.061 1.56533,-0.1762"
       style="fill:none;stroke:#ffffff;stroke-opacity:1;stroke-linecap:round"
       id="path1229" />
    <path
       d="m 727.18259,1743.11 c 0.57737,-1.0525 1.62983,-1.8737 2.84434,-1.998"
       style="fill:none;stroke:#ffffff;stroke-opacity:1;stroke-linecap:round"
       id="path1231" />
    <path
       d="m 708.38924,1791.3676 c -1.12169,0.032 -2.22764,-0.4578 -2.94502,-1.3183"
       style="fill:none;stroke:#ffffff;stroke-opacity:1;stroke-linecap:round"
       id="path1233" />
    <path
       d="m 761.53167,1794.1302 c -0.35711,0.6135 -0.75984,1.227 -1.37811,1.6062"
       style="fill:none;stroke:#ffffff;stroke-opacity:1;stroke-linecap:round"
       id="path1235" />
    <path
       d="m 730.02693,1741.112 c 1.20506,-0.1589 2.49351,0.3131 3.25965,1.268"
       style="fill:none;stroke:#ffffff;stroke-opacity:1;stroke-linecap:round"
       id="path1237" />
    <path
       d="m 700.01356,1795.0001 c -0.79918,-1.1232 -1.39385,-2.3755 -2.11909,-3.5459"
       style="fill:none;stroke:#ffffff;stroke-opacity:1;stroke-linecap:round"
       id="path1239" />
    <path
       d="m 764.66076,1787.098 c 0.16361,0.8826 -0.10069,1.7793 -0.53961,2.5438"
       style="fill:none;stroke:#ffffff;stroke-opacity:1;stroke-linecap:round"
       id="path1241" />
    <path
       d="m 737.82052,1740.0469 c 8.73122,15.1169 17.453,30.2384 26.18736,45.352"
       style="fill:none;stroke:#ffffff;stroke-opacity:1;stroke-linecap:round"
       id="path1243" />
    <path
       d="m 703.91665,1783.4073 c 7.75269,-13.4351 15.50853,-26.8654 23.26594,-40.2973"
       style="fill:none;stroke:#ffffff;stroke-opacity:1;stroke-linecap:round"
       id="path1245" />
    <path
       d="m 734.53884,1744.3937 c 7.48368,12.9647 14.9705,25.9293 22.45732,38.894"
       style="fill:none;stroke:#ffffff;stroke-opacity:1;stroke-linecap:round"
       id="path1247" />
    <path
       style="fill:#ffffff;stroke:#ffffff;stroke-width:0.0826682;stroke-linecap:round;stroke-linejoin:round;stroke-opacity:1;paint-order:markers fill stroke"
       d="m 50.625016,612.99612 c -2.32799,-0.0332 -4.589682,1.26415 -5.795569,3.24753 -7.82078,13.4059 -15.565453,26.85652 -23.301729,40.31153 -1.516578,2.68314 -3.094665,5.33431 -4.540892,8.0557 -0.522417,1.31308 0.213928,2.65979 0.887589,3.76019 0.903293,1.49186 1.677563,3.07193 2.703307,4.48476 0.80102,1.00946 2.177443,1.2435 3.392761,1.15805 17.043776,0.0525 34.087833,0.0443 51.131611,-0.002 1.379363,-0.0507 2.779982,0.0645 4.14627,-0.13693 1.208822,-0.37952 1.938337,-1.49094 2.510322,-2.54627 0.907899,-1.59452 1.884832,-3.1618 2.645092,-4.83268 0.335076,-1.05037 -0.0087,-2.17968 -0.628875,-3.05185 -8.906061,-15.51144 -17.830156,-31.01275 -26.805544,-46.48403 -0.862129,-1.53344 -2.130105,-2.90435 -3.818699,-3.5122 -0.796881,-0.33661 -1.664033,-0.46634 -2.525644,-0.45151 z m 0.176845,1.65448 c 1.576395,-0.0162 3.096516,0.75749 4.036472,2.01735 0.993066,1.43099 1.780868,2.99878 2.68693,4.48684 7.808003,13.49545 15.615006,26.99203 23.323012,40.54483 0.761953,1.24107 0.535938,2.86079 -0.243673,4.03745 -0.982855,1.71271 -1.912503,3.46827 -3.002811,5.11802 -0.720257,0.89859 -1.813306,1.55829 -2.999522,1.4413 -12.670051,0.0961 -25.352281,0.037 -38.026965,0.0373 -3.510347,-0.0169 -7.059094,0.0113 -10.54603,-0.044 -1.201328,-0.21668 -2.178867,-1.09828 -2.723864,-2.15728 -1.075603,-1.79123 -2.192248,-3.56379 -3.073639,-5.45961 -0.432178,-1.12594 -0.168335,-2.39325 0.464277,-3.42356 3.929675,-6.91212 7.946462,-13.77584 11.907694,-20.67057 4.588596,-7.92354 9.132091,-15.87477 13.779583,-23.7632 0.868182,-1.09822 2.085796,-2.00083 3.521394,-2.11713 0.297234,-0.0393 0.597469,-0.0532 0.897142,-0.0477 z"
       id="path1832"
       transform="translate(679.81496,1122.0197)" />
    <path
       style="fill:#ffffff;stroke:#ffffff;stroke-width:0.0826682;stroke-linecap:round;stroke-linejoin:round;stroke-opacity:1;paint-order:markers fill stroke"
       d="m 50.585198,619.4333 c -1.263452,-0.0521 -2.323938,0.8582 -2.885452,1.92224 -3.786256,6.30082 -7.395765,12.7062 -11.090062,19.0612 -4.202348,7.31319 -8.450959,14.60088 -12.576964,21.95722 -0.344138,1.05758 -0.132807,2.23584 0.481561,3.15312 0.607803,0.96835 1.078263,2.09487 1.998777,2.81527 0.747304,0.59645 1.722371,0.68491 2.641172,0.63411 14.151098,0.0796 28.302854,0.0774 42.45401,0.0109 1.174213,0.013 2.524191,0.0764 3.432771,-0.81398 0.960069,-0.96219 1.563151,-2.21612 2.167757,-3.41727 0.577971,-1.1085 0.233759,-2.42497 -0.416158,-3.41899 -7.689532,-13.39927 -15.421439,-26.77435 -23.199081,-40.12258 -0.559261,-1.12645 -1.744406,-1.85129 -3.008331,-1.78126 z"
       id="path1834"
       transform="translate(679.81496,1122.0197)" />
    <path
       style="fill:#ffffff;stroke:#ffffff;stroke-width:0.0826682;stroke-linecap:round;stroke-linejoin:round;stroke-opacity:1;paint-order:markers fill stroke"
       d="m 383.29721,645.21859 c -0.79549,0.0453 -1.62641,-0.0639 -2.39797,0.0914 -2.5997,6.04777 -5.20186,12.1018 -7.75037,18.17115 0.36248,1.39946 1.02428,2.71411 1.56609,4.05404 0.10296,0.23673 0.26998,0.82965 0.59764,0.47266 3.26244,-7.46649 6.41802,-14.97953 9.6344,-22.46603 0.0143,-0.47902 -0.65597,-0.25371 -0.9556,-0.32102 -0.23138,-0.003 -0.4628,-0.003 -0.69419,-0.002 z"
       id="path1836"
       transform="translate(679.81496,1122.0197)" />
    <path
       style="fill:#ffffff;stroke:#ffffff;stroke-width:0.0826682;stroke-linecap:round;stroke-linejoin:round;stroke-opacity:1;paint-order:markers fill stroke"
       d="m 356.97332,645.22052 c -0.29409,0.0595 -0.94771,-0.13716 -0.91824,0.33725 4.12976,9.68848 8.27217,19.37164 12.40894,29.05716 0.44348,0.27027 1.07011,0.0509 1.58693,0.12239 0.8025,-0.0415 1.64202,0.0863 2.42359,-0.10627 0.23186,-0.34551 -0.23756,-0.74008 -0.29335,-1.09616 -4.0271,-9.38494 -8.0325,-18.77918 -12.04724,-28.16944 -0.44252,-0.27129 -1.06862,-0.0617 -1.58457,-0.13825 -0.52532,-0.006 -1.0507,-0.0135 -1.57606,-0.007 z"
       id="path1838"
       transform="translate(679.81496,1122.0197)" />
    <path
       style="fill:#ffffff;stroke:#ffffff;stroke-width:0.0826682;stroke-linecap:round;stroke-linejoin:round;stroke-opacity:1;paint-order:markers fill stroke"
       d="m 390.24992,658.30799 c -0.12366,1.29081 -0.0181,2.62495 -0.0532,3.93249 0,4.0994 0,8.1988 0,12.2982 0.28268,0.4177 0.98294,0.10155 1.43813,0.20005 9.32682,0 18.65364,0 27.98046,0 0.4177,-0.28267 0.10155,-0.98294 0.20006,-1.43813 -0.0414,-0.76011 0.0848,-1.55529 -0.0643,-2.29285 -1.29081,-0.12367 -2.62494,-0.0181 -3.93249,-0.0532 -7.27921,0 -14.55843,0 -21.83764,0 0,-2.97557 0,-5.95113 0,-8.9267 7.05911,0 14.11822,0 21.17733,0 0.4177,-0.28267 0.10156,-0.98294 0.20006,-1.43813 -0.0414,-0.76011 0.0848,-1.5553 -0.0643,-2.29285 -1.29081,-0.12367 -2.62495,-0.0181 -3.93249,-0.0532 -6.98824,0 -13.97647,0 -20.96471,0 l -0.0756,0.0331 z"
       id="path1840"
       transform="translate(679.81496,1122.0197)" />
    <path
       style="fill:#ffffff;stroke:#ffffff;stroke-width:0.0826682;stroke-linecap:round;stroke-linejoin:round;stroke-opacity:1;paint-order:markers fill stroke"
       d="m 409.86629,645.12122 c -6.49052,0.005 -12.98091,0.0485 -19.47112,0.10865 -0.41509,0.28528 -0.10024,0.98275 -0.19845,1.43814 0.0414,0.75967 -0.0848,1.55444 0.0643,2.29156 1.03543,0.0893 2.10714,-0.0593 3.15774,-0.0218 8.75958,-0.0517 17.51938,-0.0273 26.27907,-0.0335 0.4177,-0.28267 0.10155,-0.98294 0.20005,-1.43813 -0.0414,-0.76011 0.0848,-1.55529 -0.0643,-2.29285 -1.29081,-0.12367 -2.62495,-0.0181 -3.93249,-0.0532 -2.0116,2.1e-4 -4.0232,-7e-4 -6.0348,10e-4 z"
       id="path1842"
       transform="translate(679.81496,1122.0197)" />
    <path
       style="fill:#ffffff;stroke:#ffffff;stroke-width:0.0826682;stroke-linecap:round;stroke-linejoin:round;stroke-opacity:1;paint-order:markers fill stroke"
       d="m 434.1696,645.12138 c -3.06548,0.0166 -6.13261,-0.02 -9.19624,0.10753 -0.40638,0.29345 -0.0959,0.98202 -0.19313,1.43797 0.0406,0.72239 -0.0831,1.47917 0.0643,2.1792 1.29059,0.1259 2.62464,0.0239 3.93201,0.0618 6.1222,0.0391 12.25038,-0.0266 18.3685,0.0892 0.84104,-0.002 1.70417,0.11069 2.40405,0.61374 1.16369,0.74844 2.00079,1.92953 2.16534,3.30153 0.37573,2.24422 -1.17934,4.61559 -3.38245,5.15396 -2.31331,0.26112 -4.64886,0.12933 -6.97352,0.17443 -5.45939,0.003 -10.91879,0.002 -16.37819,0.003 -0.4177,0.28267 -0.10155,0.98294 -0.20006,1.43813 0,4.95229 0,9.90458 0,14.85688 0.28268,0.4177 0.98294,0.10155 1.43813,0.20005 0.76011,-0.0414 1.5553,0.0848 2.29286,-0.0643 0.12366,-1.29081 0.0181,-2.62495 0.0532,-3.93249 0,-2.90464 0,-5.80927 0,-8.71391 3.21791,0.002 6.43583,0.004 9.65374,0.006 3.60564,4.21164 7.21121,8.42335 10.8167,12.63512 0.77414,0.16496 1.61579,0.0227 2.41569,0.0697 0.7079,-0.0271 1.43356,0.0441 2.13068,-0.0888 0.32562,-0.32663 -0.28379,-0.6283 -0.42482,-0.90624 -3.32611,-3.9007 -6.66706,-7.78872 -10.00208,-11.68181 1.89296,-0.08 3.80564,0.0421 5.68499,-0.22698 2.59491,-0.55219 4.87575,-2.37184 5.93936,-4.8093 1.4672,-3.05947 0.76254,-6.98403 -1.67957,-9.33896 -1.66201,-1.73842 -4.09532,-2.64071 -6.48701,-2.51607 -4.14728,-0.0482 -8.295,-0.0488 -12.4425,-0.049 z"
       id="path1844"
       transform="translate(679.81496,1122.0197)" />
    <path
       style="fill:#ffffff;stroke:#ffffff;stroke-width:0.0826682;stroke-linecap:round;stroke-linejoin:round;stroke-opacity:1;paint-order:markers fill stroke"
       d="m 459.3344,645.18441 c -0.1234,1.1533 -0.018,2.34985 -0.0532,3.51981 0.28268,0.4177 0.98295,0.10155 1.43814,0.20005 3.84012,0 7.68024,0 11.52036,0 0,8.54481 0,17.08961 0,25.63441 0.28268,0.4177 0.98295,0.10155 1.43814,0.20005 0.7601,-0.0414 1.55529,0.0848 2.29285,-0.0643 0.12366,-1.29081 0.0181,-2.62495 0.0532,-3.93249 0,-8.47392 0,-16.94785 0,-25.42177 -0.28268,-0.4177 -0.98294,-0.10155 -1.43813,-0.20006 -5.03484,0 -10.06967,0 -15.1045,0 l -0.0756,0.0331 z"
       id="path1846"
       transform="translate(679.81496,1122.0197)" />
    <path
       style="fill:#ffffff;stroke:#ffffff;stroke-width:0.0826682;stroke-linecap:round;stroke-linejoin:round;stroke-opacity:1;paint-order:markers fill stroke"
       d="m 481.20703,645.18441 c -0.1234,1.1533 -0.018,2.34985 -0.0532,3.51981 0.28267,0.4177 0.98294,0.10155 1.43813,0.20005 2.0588,-0.0223 4.1362,0.0444 6.18343,-0.0331 0.27501,-0.38504 0.0526,-1.00875 0.12446,-1.48755 -0.0413,-0.73262 0.0846,-1.50024 -0.0643,-2.21032 -1.27707,-0.12362 -2.59743,-0.0181 -3.89123,-0.0532 -1.21961,0.0225 -2.45799,-0.0447 -3.66602,0.0331 z"
       id="path1848"
       transform="translate(679.81496,1122.0197)" />
    <path
       style="fill:#ffffff;stroke:#ffffff;stroke-width:0.0826682;stroke-linecap:round;stroke-linejoin:round;stroke-opacity:1;paint-order:markers fill stroke"
       d="m 493.91791,645.18441 c -0.1234,1.1533 -0.018,2.34985 -0.0532,3.51981 0.28268,0.4177 0.98295,0.10155 1.43814,0.20005 9.32681,0 18.65363,0 27.98045,0 0.4177,-0.28267 0.10155,-0.98294 0.20006,-1.43813 -0.0414,-0.76011 0.0848,-1.55529 -0.0643,-2.29285 -1.29082,-0.12367 -2.62495,-0.0181 -3.9325,-0.0532 -8.47392,0 -16.94784,0 -25.42177,0 l -0.0756,0.0331 z"
       id="path1850"
       transform="translate(679.81496,1122.0197)" />
    <path
       style="fill:#ffffff;stroke:#ffffff;stroke-width:0.0826682;stroke-linecap:round;stroke-linejoin:round;stroke-opacity:1;paint-order:markers fill stroke"
       d="m 493.91791,658.30799 c -0.12366,1.29081 -0.0181,2.62495 -0.0532,3.93249 0,4.07189 0,8.14377 0,12.21566 0.28268,0.4177 0.98295,0.10155 1.43814,0.20006 9.32681,0 18.65363,0 27.98045,0 0.4177,-0.28268 0.10155,-0.98295 0.20006,-1.43814 -0.0414,-0.7601 0.0848,-1.55529 -0.0643,-2.29285 -1.29082,-0.12366 -2.62495,-0.0181 -3.9325,-0.0532 -7.27921,0 -14.55843,0 -21.83764,0 0,-2.94805 0,-5.89611 0,-8.84416 6.80817,-0.0201 13.61786,0.0476 20.42503,-0.0641 0.4706,0.0143 1.16106,0.0209 0.95236,-0.65632 -0.042,-0.99921 0.0845,-2.0337 -0.0643,-3.01054 -1.29081,-0.12367 -2.62495,-0.0181 -3.93249,-0.0532 -6.98824,0 -13.97647,0 -20.96471,0 l -0.0756,0.0331 z"
       id="path1852"
       transform="translate(679.81496,1122.0197)" />
    <path
       style="fill:#ffffff;stroke:#ffffff;stroke-width:0.0826682;stroke-linecap:round;stroke-linejoin:round;stroke-opacity:1;paint-order:markers fill stroke"
       d="m 552.95562,645.12509 c -0.59653,0.46079 -0.98551,1.18395 -1.5029,1.74479 -2.75154,3.40154 -5.48035,6.82175 -8.26594,10.19552 -3.21636,-3.90341 -6.37141,-7.85676 -9.55445,-11.78733 -0.74253,-0.17473 -1.55888,-0.0252 -2.32977,-0.0747 -0.68777,0.026 -1.39254,-0.0393 -2.07006,0.0839 -0.30658,0.31416 0.28103,0.6252 0.40366,0.90035 3.69102,4.62356 7.45791,9.18597 11.09752,13.8503 -3.78479,4.77087 -7.61876,9.50738 -11.45395,14.23445 -0.08,0.49094 0.60487,0.34271 0.89953,0.37894 1.14908,-0.0131 2.31901,0.0498 3.45455,-0.0308 1.1681,-1.29646 2.22968,-2.72821 3.35706,-4.0764 2.0608,-2.53459 4.10946,-5.07931 6.20058,-7.589 3.20207,3.84606 6.33292,7.74973 9.49673,11.62724 0.73168,0.17349 1.53631,0.0242 2.29592,0.0737 0.69267,-0.0341 1.4123,0.0583 2.09005,-0.0753 0.20096,-0.40843 -0.39278,-0.7124 -0.57175,-1.05802 -3.61899,-4.5018 -7.30914,-8.9465 -10.88752,-13.48079 3.81798,-4.89631 7.793,-9.66876 11.65611,-14.53157 0.15014,-0.45107 -0.4943,-0.33541 -0.75026,-0.36852 -1.18803,-0.034 -2.37678,-0.0129 -3.56511,-0.0168 z"
       id="path1854"
       transform="translate(679.81496,1122.0197)" />
    <path
       style="fill:#ffffff;stroke:#ffffff;stroke-width:0.0826682;stroke-linecap:round;stroke-linejoin:round;stroke-opacity:1;paint-order:markers fill stroke"
       d="m 584.2152,645.18393 c -0.1245,1.15318 -0.0181,2.35021 -0.0537,3.52029 0.27634,0.41561 0.96786,0.10567 1.41685,0.20352 0.51323,0.003 1.08492,-0.12515 1.35411,0.42946 3.97022,4.31939 7.87961,8.6967 11.9131,12.95664 0.41552,0.1121 0.60324,-0.47705 0.90239,-0.68719 3.39017,-3.68196 6.75318,-7.38878 10.12742,-11.08546 0.0483,7.97848 0.10277,15.95696 0.12059,23.93559 0.28365,0.41667 0.98287,0.10102 1.43813,0.19942 0.73282,-0.0403 1.49974,0.0822 2.21031,-0.0643 0.12367,-1.29081 0.0181,-2.62494 0.0532,-3.93249 0,-8.44641 0,-16.89282 0,-25.33923 -0.28284,-0.4178 -0.98314,-0.1 -1.43845,-0.19767 -0.85631,0.0444 -1.74944,-0.0838 -2.58239,0.0703 -3.5715,3.91094 -7.11539,7.84718 -10.71916,11.72848 -3.62325,-3.87873 -7.18541,-7.81404 -10.77559,-11.72333 -1.01919,-0.15227 -2.09689,-0.0301 -3.13886,-0.0755 -0.27267,0.0301 -0.57742,-0.0719 -0.82797,0.0615 z"
       id="path1856"
       transform="translate(679.81496,1122.0197)" />
    <path
       style="fill:#ffffff;stroke:#ffffff;stroke-width:0.0826682;stroke-linecap:round;stroke-linejoin:round;stroke-opacity:1;paint-order:markers fill stroke"
       d="m 584.21471,658.22545 c -0.12366,1.29081 -0.0181,2.62495 -0.0532,3.93249 0,4.0994 0,8.1988 0,12.2982 0.28267,0.4177 0.98294,0.10155 1.43813,0.20006 0.76011,-0.0414 1.55529,0.0847 2.29285,-0.0643 0.12367,-1.29081 0.0181,-2.62494 0.0532,-3.93249 0,-4.0994 0,-8.1988 0,-12.29819 -0.28267,-0.4177 -0.98294,-0.10156 -1.43813,-0.20006 -0.75814,0.0415 -1.55819,-0.0849 -2.29286,0.0643 z"
       id="path1858"
       transform="translate(679.81496,1122.0197)" />
    <path
       style="fill:#ffffff;stroke:#ffffff;stroke-width:0.0826682;stroke-linecap:round;stroke-linejoin:round;stroke-opacity:1;paint-order:markers fill stroke"
       d="m 618.71569,645.18441 c -0.12367,1.29082 -0.0181,2.62495 -0.0532,3.9325 0,8.44641 0,16.89282 0,25.33923 0.28267,0.4177 0.98294,0.10155 1.43813,0.20006 0.76011,-0.0414 1.55529,0.0847 2.29285,-0.0643 0.12367,-1.29081 0.0181,-2.62494 0.0532,-3.93249 0,-8.44641 0,-16.89282 0,-25.33923 -0.28267,-0.4177 -0.98294,-0.10155 -1.43813,-0.20006 -0.75814,0.0415 -1.55819,-0.0849 -2.29285,0.0643 z"
       id="path1860"
       transform="translate(679.81496,1122.0197)" />
    <path
       style="fill:#ffffff;stroke:#ffffff;stroke-width:0.0826682;stroke-linecap:round;stroke-linejoin:round;stroke-opacity:1;paint-order:markers fill stroke"
       d="m 627.3822,658.22545 c -0.12367,1.29081 -0.0181,2.62495 -0.0532,3.93249 0,4.0994 0,8.1988 0,12.2982 0.28267,0.4177 0.98294,0.10155 1.43813,0.20006 0.76011,-0.0414 1.5553,0.0847 2.29286,-0.0643 0.12366,-1.29081 0.0181,-2.62494 0.0532,-3.93249 0,-4.0994 0,-8.1988 0,-12.29819 -0.28267,-0.4177 -0.98294,-0.10156 -1.43813,-0.20006 -0.75814,0.0415 -1.55819,-0.0849 -2.29285,0.0643 z"
       id="path1862"
       transform="translate(679.81496,1122.0197)" />
    <path
       style="fill:#ffffff;stroke:#ffffff;stroke-width:0.0826682;stroke-linecap:round;stroke-linejoin:round;stroke-opacity:1;paint-order:markers fill stroke"
       d="m 627.38381,645.17958 c -0.12707,1.15399 -0.0186,2.3532 -0.0548,3.52464 0.26304,0.41352 0.9402,0.10729 1.37542,0.20473 0.46809,0.0749 1.09641,-0.2116 1.36688,0.30915 7.72863,8.45673 15.45723,16.91347 23.18582,25.37023 1.0194,0.15074 2.09739,0.0242 3.13952,0.0676 0.69579,0.19309 0.55535,-0.58814 0.551,-1.02513 0,-9.43687 0,-18.87374 0,-28.31061 -0.28267,-0.4177 -0.98294,-0.10155 -1.43813,-0.20006 -0.75995,0.0414 -1.55497,-0.0848 -2.29237,0.0643 -0.12535,1.29066 -0.0225,2.62474 -0.0597,3.93217 -0.0114,6.60472 -0.0228,13.20945 -0.0342,19.81417 -7.23099,-7.90144 -14.46195,-15.80292 -21.69288,-23.70442 -1.03176,-0.15827 -2.1227,-0.0474 -3.17748,-0.10081 -0.28653,0.0264 -0.60348,-0.0747 -0.86899,0.0541 z"
       id="path1864"
       transform="translate(679.81496,1122.0197)" />
    <path
       style="fill:#ffffff;stroke:#ffffff;stroke-width:0.0826682;stroke-linecap:round;stroke-linejoin:round;stroke-opacity:1;paint-order:markers fill stroke"
       d="m 661.96571,645.18441 c -0.12367,1.29082 -0.0181,2.62495 -0.0532,3.9325 0,8.44641 0,16.89282 0,25.33923 0.28267,0.4177 0.98294,0.10155 1.43813,0.20006 0.76011,-0.0414 1.5553,0.0847 2.29286,-0.0643 0.12366,-1.29081 0.0181,-2.62494 0.0532,-3.93249 0,-8.44641 0,-16.89282 0,-25.33923 -0.28267,-0.4177 -0.98294,-0.10155 -1.43813,-0.20006 -0.75814,0.0415 -1.55819,-0.0849 -2.29285,0.0643 z"
       id="path1866"
       transform="translate(679.81496,1122.0197)" />
  </g>
  <desc
     id="desc1251">PS-VERTEX-MINI.dxf - scale = 1.000000, origin = (0.000000, 0.000000), method = auto</desc>
</svg>
